<svg viewBox="-3900 -3500 21470 13800" width="214.7mm" height="138.0mm" role="img" aria-label="Elevation 2 · left side" xmlns="http://www.w3.org/2000/svg"><title>Elevation 2 · left side</title><desc>Clean architectural reconstruction using straight lines, circular arcs and editable text. Millimetre model coordinates. See dimension audit for checked spans and unresolved source discrepancies.</desc><style>
text{font-family:Arial,Helvetica,sans-serif;fill:#303e47}
.shell{fill:#fff}.walls{fill:none;stroke:#283238;stroke-linejoin:miter}
.wall-solid{fill:#283238;stroke:#283238;stroke-width:0}
.window{fill:#fff;stroke:#34454e;stroke-width:18}
.door{fill:none;stroke:#53636b;stroke-width:17}
.fixture{fill:none;stroke:#78848a;stroke-width:16}
.detail{fill:none;stroke:#4d5b62;stroke-width:20}
.roof{fill:#fff;stroke:#55676f;stroke-width:32;stroke-linejoin:round}
.dash{stroke-dasharray:120 95}
.room{stroke:none;cursor:pointer;transition:stroke .15s}
.room:hover,.room.selected{stroke:#168bff;stroke-width:35}
.room:focus{outline:none;stroke:#377da3;stroke-width:35}
.room-label{font-size:235px;letter-spacing:12px;pointer-events:none;text-anchor:middle}
.small-label{font-size:180px;fill:#6f8088;pointer-events:none;text-anchor:middle}
.dimension{fill:none;stroke:#608598;stroke-width:17}
.dim-label{font-size:205px;fill:#52778b;text-anchor:middle;paint-order:stroke;stroke:#fff;stroke-width:90;stroke-linejoin:round}
.level-label{font-size:200px;fill:#56778a;paint-order:stroke;stroke:#fff;stroke-width:65}
.drawing-title{font-size:310px;letter-spacing:28px}
.drawing-note{font-size:180px;fill:#7d8b91}
.drawing-scale{font-size:165px;fill:#617882}
.source-dimension{font-variant-numeric:tabular-nums}
[data-dimension]{cursor:pointer}[data-dimension]:hover .dim-label{fill:#20638a}
[data-dimension]:focus{outline:none}[data-dimension]:focus .dimension{stroke:#20638a;stroke-width:30}
</style><rect x="-3900" y="-3500" width="21470" height="13800" fill="#fff"></rect><g data-layer="base" id="elevation-2-base"><polygon class="roof" points="0.0,0.0 13190.0,0.0 13190.0,6041.0 0.0,6041.0" fill="#fff"></polygon><polygon class="roof" points="-600.0,3740.0 -600.0,2955.0 0.0,2955.0 0.0,3740.0" fill="#fff"></polygon><polygon class="roof" points="13190.0,2183.0 15470.0,2143.2 15470.0,6041.0 13190.0,6041.0" fill="#fff"></polygon><polygon class="roof" points="5880.0,3651.0 12710.0,3651.0 12710.0,6555.0 5880.0,6555.0" fill="#fff"></polygon><path class="roof" data-cornice-face="upper-eave-5-0-3-0-view-0" d="M -55.000 172.000 L 4025.000 172.000 L 4025.000 0.000 L -55.000 0.000 Z" style="fill:#fff" fill-rule="evenodd"></path><path class="roof" data-cornice-face="upper-eave-5-0-3-0-view-1" d="M 12165.000 172.000 L 13245.000 172.000 L 13245.000 0.000 L 12165.000 0.000 Z" style="fill:#fff" fill-rule="evenodd"></path><path class="roof" data-cornice-face="upper-eave-7-0-3-0-view-0" d="M 4025.000 172.000 L 12165.000 172.000 L 12165.000 0.000 L 4025.000 0.000 Z" style="fill:#fff" fill-rule="evenodd"></path><path class="roof" data-cornice-face="upper-head-5-0-0-0-view-0" d="M -65.000 3796.000 L 4975.000 3796.000 L 4975.000 3726.000 L -65.000 3726.000 Z" style="fill:#fff" fill-rule="evenodd"></path><path class="roof" data-cornice-face="upper-head-5-0-0-0-view-1" d="M -65.000 538.000 L 4015.000 538.000 L 4015.000 468.000 L -65.000 468.000 Z" style="fill:#fff" fill-rule="evenodd"></path><path class="roof" data-cornice-face="upper-head-5-0-0-0-view-2" d="M 12175.000 538.000 L 13255.000 538.000 L 13255.000 468.000 L 12175.000 468.000 Z" style="fill:#fff" fill-rule="evenodd"></path><path class="roof" data-cornice-face="upper-head-5-0-1-0-view-0" d="M -65.000 538.000 L -35.000 640.000 L 4045.000 640.000 L 4015.000 538.000 Z" style="fill:#fff" fill-rule="evenodd"></path><path class="roof" data-cornice-face="upper-head-5-0-1-0-view-1" d="M 12145.000 640.000 L 13225.000 640.000 L 13255.000 538.000 L 12175.000 538.000 Z" style="fill:#fff" fill-rule="evenodd"></path><path class="roof" data-cornice-face="upper-head-7-0-0-0-view-0" d="M 4015.000 538.000 L 12175.000 538.000 L 12175.000 468.000 L 4015.000 468.000 Z" style="fill:#fff" fill-rule="evenodd"></path><path class="roof" data-cornice-face="upper-head-7-0-1-0-view-0" d="M 4015.000 538.000 L 4045.000 640.000 L 12145.000 640.000 L 12175.000 538.000 Z" style="fill:#fff" fill-rule="evenodd"></path><path class="roof" data-cornice-face="ground-head-1-0-0-0-view-0" d="M 4975.000 3796.000 L 5815.000 3796.000 L 5815.000 3780.000 L 5760.000 3780.000 L 5760.000 3726.000 L 4975.000 3726.000 Z" style="fill:#fff" fill-rule="evenodd"></path><path class="roof" data-cornice-face="ground-head-1-0-1-0-view-0" d="M 4975.000 3796.000 L 5005.000 3898.000 L 5845.000 3898.000 L 5815.000 3796.000 Z" style="fill:#fff" fill-rule="evenodd"></path><path class="roof" data-cornice-face="ground-head-1-0-end-a-0-view-0" d="M 5815.000 3796.000 L 5845.000 3898.000 L 5875.000 3898.000 L 5875.000 3822.000 L 5830.000 3822.000 L 5821.765 3780.000 L 5815.000 3780.000 Z" style="fill:#fff" fill-rule="evenodd"></path><path class="roof" data-cornice-face="ground-head-3-0-1-0-view-0" d="M -65.000 3796.000 L -35.000 3898.000 L 5005.000 3898.000 L 4975.000 3796.000 Z" style="fill:#fff" fill-rule="evenodd"></path><path class="roof" data-cornice-face="ground-head-5-0-0-0-view-0" d="M -665.000 3796.000 L -65.000 3796.000 L -65.000 3726.000 L -665.000 3726.000 Z" style="fill:#fff" fill-rule="evenodd"></path><path class="roof" data-cornice-face="ground-head-5-0-1-0-view-0" d="M -665.000 3796.000 L -635.000 3898.000 L -35.000 3898.000 L -65.000 3796.000 Z" style="fill:#fff" fill-rule="evenodd"></path><path class="roof" data-cornice-face="photo-front-storey-5-0-0-0-view-0" d="M 12195.000 2923.000 L 13275.000 2923.000 L 13275.000 2783.000 L 12195.000 2783.000 Z" style="fill:#fff" fill-rule="evenodd"></path><path class="roof" data-cornice-face="photo-front-storey-5-0-2-0-view-0" d="M 12155.000 2995.000 L 13235.000 2995.000 L 13235.000 2923.000 L 12155.000 2923.000 Z" style="fill:#fff" fill-rule="evenodd"></path><path class="roof" data-cornice-face="photo-front-storey-6-0-end-b-0-view-0" d="M 12110.000 2995.000 L 12155.000 2995.000 L 12155.000 2923.000 L 12195.000 2923.000 L 12195.000 2783.000 L 12110.000 2783.000 Z" style="fill:#fff" fill-rule="evenodd"></path><path class="roof" data-cornice-face="garage-eave-5-0-2-0-view-0" d="M 5821.765 3780.000 L 5830.000 3822.000 L 12760.000 3822.000 L 12768.235 3780.000 Z" style="fill:#fff" fill-rule="evenodd"></path><path class="roof" data-cornice-face="garage-frieze-5-0-0-0-view-0" d="M 5875.000 4248.000 L 12715.000 4248.000 L 12715.000 3822.000 L 5875.000 3822.000 Z" style="fill:#fff" fill-rule="evenodd"></path><path class="roof" data-cornice-face="garage-lintel-5-0-0-0-view-0" d="M 5815.000 4318.000 L 12775.000 4318.000 L 12775.000 4248.000 L 5815.000 4248.000 Z" style="fill:#fff" fill-rule="evenodd"></path><path class="roof" data-cornice-face="garage-lintel-5-0-1-0-view-0" d="M 5815.000 4318.000 L 5845.000 4420.000 L 12745.000 4420.000 L 12775.000 4318.000 Z" style="fill:#fff" fill-rule="evenodd"></path><path class="roof" data-cornice-face="photo-garage-fascia-4-0-end-b-0-view-0" d="M 12715.000 4248.000 L 12720.000 4248.000 L 12720.000 3822.000 L 12715.000 3822.000 Z" style="fill:#fff" fill-rule="evenodd"></path><path class="roof" data-cornice-face="photo-garage-gutter-3-0-0-0-view-0" d="M 12830.000 3770.000 L 12890.000 3770.000 L 12890.000 3630.000 L 12830.000 3630.000 Z" style="fill:#333" fill-rule="evenodd"></path><path class="roof" data-cornice-face="portico-entablature-3-0-1-0-view-0" d="M 13190.000 2355.000 L 15505.000 2355.000 L 15517.353 2313.000 L 13260.000 2313.000 L 13260.000 2353.000 L 13190.000 2353.000 Z" style="fill:#fff" fill-rule="evenodd"></path><path class="roof" data-cornice-face="bay-eave-3-0-0-0-view-0" d="M -670.000 3025.000 L 0.000 3025.000 L 0.000 2955.000 L -670.000 2955.000 Z" style="fill:#fff" fill-rule="evenodd"></path><path class="roof" data-cornice-face="bay-eave-3-0-1-0-view-0" d="M -670.000 3025.000 L -635.000 3127.000 L 0.000 3127.000 L 0.000 3025.000 Z" style="fill:#fff" fill-rule="evenodd"></path><path class="roof" data-cornice-face="paired-sill-6230-2183-11-0-view-0" d="M 12110.000 2353.000 L 12180.000 2353.000 L 12180.000 2098.000 L 12110.000 2098.000 Z" style="fill:#fff" fill-rule="evenodd"></path><path class="roof" data-cornice-face="paired-sill-10340-2183-11-0-view-0" d="M 13190.000 2353.000 L 13260.000 2353.000 L 13260.000 2098.000 L 13190.000 2098.000 Z" style="fill:#fff" fill-rule="evenodd"></path><path class="roof" data-cornice-face="photo-living-surround-0-18-0-view-0" d="M 13190.000 3678.696 L 13245.000 3678.696 L 13245.000 3678.000 L 13190.000 3678.000 Z" style="fill:#fff" fill-rule="evenodd"></path><path class="roof" data-cornice-face="photo-living-surround-0-19-0-view-0" d="M 13190.000 3680.785 L 13245.000 3680.785 L 13245.000 3678.696 L 13190.000 3678.696 Z" style="fill:#fff" fill-rule="evenodd"></path><path class="roof" data-cornice-face="photo-living-surround-0-20-0-view-0" d="M 13190.000 3684.267 L 13245.000 3684.267 L 13245.000 3680.785 L 13190.000 3680.785 Z" style="fill:#fff" fill-rule="evenodd"></path><path class="roof" data-cornice-face="photo-living-surround-0-21-0-view-0" d="M 13190.000 3689.144 L 13245.000 3689.144 L 13245.000 3684.267 L 13190.000 3684.267 Z" style="fill:#fff" fill-rule="evenodd"></path><path class="roof" data-cornice-face="photo-living-surround-0-22-0-view-0" d="M 13190.000 3695.418 L 13245.000 3695.418 L 13245.000 3689.144 L 13190.000 3689.144 Z" style="fill:#fff" fill-rule="evenodd"></path><path class="roof" data-cornice-face="photo-living-surround-0-23-0-view-0" d="M 13190.000 3703.093 L 13245.000 3703.093 L 13245.000 3695.418 L 13190.000 3695.418 Z" style="fill:#fff" fill-rule="evenodd"></path><path class="roof" data-cornice-face="photo-living-surround-0-24-0-view-0" d="M 13190.000 3712.172 L 13245.000 3712.172 L 13245.000 3703.093 L 13190.000 3703.093 Z" style="fill:#fff" fill-rule="evenodd"></path><path class="roof" data-cornice-face="photo-living-surround-0-25-0-view-0" d="M 13190.000 3722.659 L 13245.000 3722.659 L 13245.000 3712.172 L 13190.000 3712.172 Z" style="fill:#fff" fill-rule="evenodd"></path><path class="roof" data-cornice-face="photo-living-surround-0-26-0-view-0" d="M 13190.000 3734.559 L 13245.000 3734.559 L 13245.000 3722.659 L 13190.000 3722.659 Z" style="fill:#fff" fill-rule="evenodd"></path><path class="roof" data-cornice-face="photo-living-surround-0-27-0-view-0" d="M 13190.000 3747.878 L 13245.000 3747.878 L 13245.000 3734.559 L 13190.000 3734.559 Z" style="fill:#fff" fill-rule="evenodd"></path><path class="roof" data-cornice-face="photo-living-surround-0-28-0-view-0" d="M 13190.000 3762.622 L 13245.000 3762.622 L 13245.000 3747.878 L 13190.000 3747.878 Z" style="fill:#fff" fill-rule="evenodd"></path><path class="roof" data-cornice-face="photo-living-surround-0-29-0-view-0" d="M 13190.000 3778.799 L 13245.000 3778.799 L 13245.000 3762.622 L 13190.000 3762.622 Z" style="fill:#fff" fill-rule="evenodd"></path><path class="roof" data-cornice-face="photo-living-surround-0-30-0-view-0" d="M 13190.000 3796.416 L 13245.000 3796.416 L 13245.000 3778.799 L 13190.000 3778.799 Z" style="fill:#fff" fill-rule="evenodd"></path><path class="roof" data-cornice-face="photo-living-surround-0-31-0-view-0" d="M 13190.000 3815.482 L 13245.000 3815.482 L 13245.000 3796.416 L 13190.000 3796.416 Z" style="fill:#fff" fill-rule="evenodd"></path><path class="roof" data-cornice-face="photo-living-surround-0-32-0-view-0" d="M 13190.000 3836.007 L 13245.000 3836.007 L 13245.000 3815.482 L 13190.000 3815.482 Z" style="fill:#fff" fill-rule="evenodd"></path><path class="roof" data-cornice-face="photo-living-surround-0-33-0-view-0" d="M 13190.000 3858.000 L 13245.000 3858.000 L 13245.000 3836.007 L 13190.000 3836.007 Z" style="fill:#fff" fill-rule="evenodd"></path><path class="roof" data-cornice-face="photo-living-surround-0-34-0-view-0" d="M 13190.000 5531.000 L 13245.000 5531.000 L 13245.000 3858.000 L 13190.000 3858.000 Z" style="fill:#fff" fill-rule="evenodd"></path><path class="roof" data-cornice-face="front-first-pilaster-left-cap-3-0-0-0-view-0" d="M 13350.000 -60.000 L 13520.000 -60.000 L 13520.000 -130.000 L 13350.000 -130.000 Z" style="fill:#fff" fill-rule="evenodd"></path><path class="roof" data-cornice-face="front-first-pilaster-left-cap-3-0-2-0-view-0" d="M 13350.000 0.000 L 13475.000 0.000 L 13480.000 -20.000 L 13350.000 -20.000 Z" style="fill:#fff" fill-rule="evenodd"></path><path class="roof" data-cornice-face="front-first-pilaster-left-cap-3-0-3-0-view-0" d="M 13245.000 172.000 L 13475.000 172.000 L 13475.000 0.000 L 13245.000 0.000 Z" style="fill:#fff" fill-rule="evenodd"></path><path class="roof" data-cornice-face="front-first-pilaster-left-head-band-3-0-0-0-view-0" d="M 13255.000 538.000 L 13485.000 538.000 L 13485.000 468.000 L 13255.000 468.000 Z" style="fill:#fff" fill-rule="evenodd"></path><path class="roof" data-cornice-face="front-first-pilaster-left-head-band-3-0-1-0-view-0" d="M 13225.000 640.000 L 13455.000 640.000 L 13485.000 538.000 L 13255.000 538.000 Z" style="fill:#fff" fill-rule="evenodd"></path><path class="detail" data-cornice-face="front-first-pilaster-left-5-0-view-0" d="M 13190.000 2098.000 L 13260.000 2098.000 L 13260.000 2181.778 L 13420.000 2178.985 L 13420.000 640.000 L 13190.000 640.000 Z" style="fill:#fff" fill-rule="evenodd"></path><path class="detail" data-cornice-face="front-first-pilaster-left-5-0-view-1" d="M 13190.000 468.000 L 13420.000 468.000 L 13420.000 172.000 L 13190.000 172.000 Z" style="fill:#fff" fill-rule="evenodd"></path><path class="roof" data-roof-face="main-hip-0-0-0-0-view-0" data-roof-component="main-hip" d="M 3920.000 -130.000 L 12270.000 -130.000 L 6055.000 -2492.926 L 3920.000 -1681.205 Z" fill="#fff" fill-rule="evenodd"></path><path class="roof" data-roof-face="central-hip-0-0-0-0-view-0" data-roof-component="central-hip" d="M 6055.000 -2492.926 L 12270.000 -130.000 L 13350.000 -130.000 L 6715.000 -2652.609 L 6475.000 -2652.609 Z" fill="#fff" fill-rule="evenodd"></path><path class="roof" data-roof-face="arch-gable-0-0-0-0-view-0" data-roof-component="arch-gable" d="M 11025.804 -1013.653 L 13350.000 -130.000 L 13580.000 -130.000 L 13580.000 -1013.653 Z" fill="#fff" fill-rule="evenodd"></path><path class="roof" data-roof-face="garage-hip-0-0-0-view-0" data-roof-component="garage-hip" d="M 5760.000 3650.000 L 12830.000 3650.000 L 9295.000 2306.003 Z" fill="#fff" fill-rule="evenodd"></path><path class="roof" data-roof-face="fascia-3-0-view-0" data-roof-component="main-hip" d="M 3920.000 -20.000 L 12270.000 -20.000 L 12270.000 -130.000 L 3920.000 -130.000 Z" fill="#fff" fill-rule="evenodd"></path><path class="roof" data-roof-face="infill-3-0-view-0" data-roof-component="main-hip" d="M 3920.000 0.000 L 12270.000 0.000 L 12270.000 -20.000 L 3920.000 -20.000 Z" fill="#fff" fill-rule="evenodd"></path><path class="roof" data-roof-face="fascia-9-0-view-0" data-roof-component="main-hip" d="M -160.000 -20.000 L 3920.000 -1571.205 L 3920.000 -1681.205 L -160.000 -130.000 Z" fill="#fff" fill-rule="evenodd"></path><path class="roof" data-roof-face="fascia-9-0-view-1" data-roof-component="main-hip" d="M 12270.000 -20.000 L 13350.000 -20.000 L 13350.000 -130.000 L 12270.000 -130.000 Z" fill="#fff" fill-rule="evenodd"></path><path class="roof" data-roof-face="infill-9-0-view-0" data-roof-component="main-hip" d="M -160.000 0.000 L 3920.000 0.000 L 3920.000 -1571.205 L -160.000 -20.000 Z" fill="#fff" fill-rule="evenodd"></path><path class="roof" data-roof-face="infill-9-0-view-1" data-roof-component="main-hip" d="M 12270.000 0.000 L 13350.000 0.000 L 13350.000 -20.000 L 12270.000 -20.000 Z" fill="#fff" fill-rule="evenodd"></path><path class="roof" data-roof-face="fascia-29-0-view-0" data-roof-component="arch-gable" d="M 13190.000 2293.000 L 15570.000 2251.457 L 15570.000 2141.457 L 13190.000 2183.000 Z" fill="#fff" fill-rule="evenodd"></path><path class="roof" data-roof-face="fascia-29-0-view-1" data-roof-component="arch-gable" d="M 13350.000 -20.000 L 13580.000 -20.000 L 13580.000 -130.000 L 13350.000 -130.000 Z" fill="#fff" fill-rule="evenodd"></path><path class="roof" data-roof-face="fascia-34-0-view-0" data-roof-component="garage-hip" d="M 5760.000 3760.000 L 12830.000 3760.000 L 12830.000 3650.000 L 5760.000 3650.000 Z" fill="#fff" fill-rule="evenodd"></path><path class="roof" data-roof-face="infill-34-0-view-0" data-roof-component="garage-hip" d="M 5760.000 3780.000 L 12830.000 3780.000 L 12830.000 3760.000 L 5760.000 3760.000 Z" fill="#fff" fill-rule="evenodd"></path><path class="roof" data-roof-face="garage-abutment-37-0-view-0" data-roof-component="garage-hip" d="M 7290.000 3068.298 L 7309.436 3060.909 L 7587.998 2955.000 L 7290.000 2955.000 Z" fill="#fff" fill-rule="evenodd" style="stroke:none"></path><path class="roof" data-roof-face="garage-abutment-37-0-view-1" data-roof-component="garage-hip" d="M 11002.002 2955.000 L 11555.987 3165.624 L 12110.000 3376.258 L 12110.000 2955.000 Z" fill="#fff" fill-rule="evenodd" style="stroke:none"></path><path class="roof" data-roof-face="infill-53-0-view-0" data-roof-component="portico-deck" d="M 13190.000 2313.000 L 15570.000 2313.000 L 15570.000 2251.457 L 13190.000 2293.000 Z" fill="#fff" fill-rule="evenodd"></path><path class="roof" data-roof-face="fascia-57-0-view-0" data-roof-component="bay-lean-to" d="M -700.000 2901.020 L 0.000 2634.882 L 0.000 2524.882 L -700.000 2791.020 Z" fill="#fff" fill-rule="evenodd"></path><path class="roof" data-roof-face="infill-57-0-view-0" data-roof-component="bay-lean-to" d="M -700.000 2955.000 L 0.000 2955.000 L 0.000 2634.882 L -700.000 2901.020 Z" fill="#fff" fill-rule="evenodd"></path></g><g data-layer="rooms" id="elevation-2-rooms"></g><g data-layer="walls" id="elevation-2-walls"></g><g data-layer="openings" id="elevation-2-openings"></g><g data-layer="fixtures" id="elevation-2-fixtures"><polyline class="fixture" points="4080.0,0.0 4080.0,2955.0 5000.0,2955.0 5000.0,3740.0"></polyline><rect data-elevation-window="elevation-2-window-0" class="detail" x="5800.0" y="640.0" width="1210.0" height="1200.0" rx="0"></rect><rect class="fixture" x="5835.0" y="675.0" width="1140.0" height="1130.0" rx="0"></rect><polyline class="fixture" points="5845.0,685.0 6405.0,1795.0 6965.0,685.0"></polyline><rect data-elevation-window="elevation-2-window-1" class="detail" x="1310.0" y="3898.0" width="565.0" height="1372.0" rx="0"></rect><rect class="fixture" x="1345.0" y="3933.0" width="495.0" height="1302.0" rx="0"></rect><polyline class="fixture" points="1355.0,3943.0 1592.5,5225.0 1830.0,3943.0"></polyline><rect data-elevation-window="elevation-2-window-2" class="detail" x="1310.0" y="5270.0" width="565.0" height="771.0" rx="0"></rect><rect class="fixture" x="1345.0" y="5305.0" width="495.0" height="701.0" rx="0"></rect><rect data-elevation-window="elevation-2-window-3" class="detail" x="3515.0" y="3898.0" width="565.0" height="1372.0" rx="0"></rect><rect class="fixture" x="3550.0" y="3933.0" width="495.0" height="1302.0" rx="0"></rect><polyline class="fixture" points="3560.0,3943.0 3797.5,5225.0 4035.0,3943.0"></polyline><rect data-elevation-window="elevation-2-window-4" class="detail" x="3515.0" y="5270.0" width="565.0" height="771.0" rx="0"></rect><rect class="fixture" x="3550.0" y="5305.0" width="495.0" height="701.0" rx="0"></rect><rect data-elevation-window="elevation-2-window-5" class="detail" x="1875.0" y="3898.0" width="1640.0" height="2143.0" rx="0"></rect><rect class="fixture" x="1910.0" y="3933.0" width="1570.0" height="2073.0" rx="0"></rect><polyline class="fixture" points="1875.0,3898.0 3515.0,6041.0"></polyline><polyline class="fixture" points="3515.0,3898.0 1875.0,6041.0"></polyline><polyline class="fixture" points="2695.0,3898.0 2695.0,6041.0"></polyline><rect data-elevation-window="elevation-2-window-6" class="detail" x="-445.0" y="3898.0" width="445.0" height="1200.0" rx="0"></rect><rect class="fixture" x="-410.0" y="3933.0" width="375.0" height="1130.0" rx="0"></rect><g data-arch="elevation-2-entrance"><path class="detail" data-feature="arch-impost-band" d="M 13190 3898 H 13780 A 550.0 550.0 0 0 1 14330.0 3348.0 A 550.0 550.0 0 0 1 14880 3898 H 15470 V 3726 H 15031.21323433033 A 722.0 722.0 0 0 0 14330.0 3176.0 A 722.0 722.0 0 0 0 13628.78676566967 3726 H 13190 Z" style="fill:#fff"></path><path class="detail" data-feature="arch-pier-jambs" d="M 13780 3898 V 6041 M 14880 3898 V 6041"></path><path class="detail" data-feature="round-arch" d="M 13780 6041 V 3898 A 550.0 550.0 0 0 1 14330.0 3348.0 A 550.0 550.0 0 0 1 14880 3898 V 6041"></path></g><polyline class="fixture" points="-2500.0,6213.0 5880.0,6213.0 5880.0,6555.0 13910.0,6555.0"></polyline><polyline class="detail dash" points="4450.0,6213.0 4450.0,8613.0 9500.0,8613.0 9500.0,6213.0"></polyline><path class="roof" data-cornice-face="photo-pier-base-14280-13790-3-0-0-0-view-0" d="M 13190.000 5591.000 L 13850.000 5591.000 L 13850.000 5441.000 L 13245.000 5441.000 L 13245.000 5531.000 L 13190.000 5531.000 Z" style="fill:#fff" fill-rule="evenodd"></path><path class="roof" data-cornice-face="photo-pier-base-14280-13790-3-0-0-0-view-1" d="M 14810.000 5591.000 L 15540.000 5591.000 L 15540.000 5441.000 L 14810.000 5441.000 Z" style="fill:#fff" fill-rule="evenodd"></path><path class="roof" data-cornice-face="photo-pier-base-14280-13790-3-0-2-0-view-0" d="M 13190.000 5621.000 L 13820.000 5621.000 L 13820.000 5591.000 L 13190.000 5591.000 Z" style="fill:#fff" fill-rule="evenodd"></path><path class="roof" data-cornice-face="photo-pier-base-14280-13790-3-0-2-0-view-1" d="M 14840.000 5621.000 L 15510.000 5621.000 L 15510.000 5591.000 L 14840.000 5591.000 Z" style="fill:#fff" fill-rule="evenodd"></path><path class="roof" data-cornice-face="photo-pier-base-14280-13790-3-0-4-0-view-0" d="M 13190.000 6041.000 L 13830.000 6041.000 L 13830.000 5621.000 L 13190.000 5621.000 Z" style="fill:#fff" fill-rule="evenodd"></path><path class="roof" data-cornice-face="photo-pier-base-14280-13790-3-0-4-0-view-1" d="M 14830.000 6041.000 L 15520.000 6041.000 L 15520.000 5621.000 L 14830.000 5621.000 Z" style="fill:#fff" fill-rule="evenodd"></path></g><g data-layer="labels" id="elevation-2-labels"><text class="small-label" x="5540.0" y="750.0">61c</text><text class="small-label" x="5540.0" y="1960.0">47c</text><text class="small-label" x="1010.0" y="4008.0">23c</text><text class="small-label" x="1010.0" y="5380.0">07c</text><text class="small-label" x="1010.0" y="6151.0">−02c</text><text class="small-label" x="-705.0" y="4008.0">23c</text><text class="small-label" x="-705.0" y="5218.0">09c</text><text class="small-label" x="15000.0" y="1700.0">METAL ROOF · 1°</text><text class="room-label" x="6975.0" y="7700.0">CELLAR BELOW</text><text class="small-label" x="7690.0" y="-1200.0">TILE ROOF @ 20°49′ PITCH</text><text class="small-label" x="2700.0" y="1330.0">render</text><text class="drawing-title" x="-3450" y="9760">ELEVATION 2 · LEFT SIDE</text><text class="drawing-note" x="-3450" y="10100">9 GLENN AVENUE · SOURCE SHEET 5 · DIMENSIONS IN mm</text><path d="M 12120 9740 h 5000 M 12120 9650 v 180 M 14620.0 9680 v 140 M 17120 9650 v 180" stroke="#617882" stroke-width="22"></path><text class="drawing-scale" x="12120" y="10050">0</text><text class="drawing-scale" text-anchor="end" x="17120" y="10050">5 m</text></g><g data-layer="dimensions" id="elevation-2-dimensions"><polyline class="dimension dash" points="-2450.0,0.0 16120.0,0.0"></polyline><text class="level-label" x="-3250" y="-140">CL  68c + PLATE</text><polyline class="dimension dash" points="-2450.0,2783.0 16120.0,2783.0"></polyline><text class="level-label" x="-3250" y="2573">FL  36c</text><polyline class="dimension dash" points="-2450.0,2955.0 16120.0,2955.0"></polyline><text class="level-label" x="-3250" y="3335">CL  34c</text><polyline class="dimension dash" points="-2450.0,6041.0 16120.0,6041.0"></polyline><text class="level-label" x="-3250" y="5901">FL  −02c</text><polyline class="dimension dash" points="-2450.0,8613.0 16120.0,8613.0"></polyline><text class="level-label" x="-3250" y="8473">CELLAR FL  −32c</text><g data-provenance="printed" data-dimension="0" tabindex="0" role="button" aria-label="Printed dimension 2783 millimetres"><title>2783 mm · source sheet 5</title><path class="dimension" d="M -2700 0 H -2300 M -2700 2783 H -2300 M -2550 0 V 2783 M -2615 65 l 130 -130 M -2615 2848 l 130 -130"></path><text class="dim-label source-dimension" x="-2675" y="1391.5" transform="rotate(-90 -2675 1391.5)">2783</text></g><g data-provenance="printed" data-dimension="1" tabindex="0" role="button" aria-label="Printed dimension 172 millimetres"><title>172 mm · source sheet 5</title><path class="dimension" d="M -2700 2783 H -2300 M -2700 2955 H -2300 M -2550 2783 V 2955 M -2615 2848 l 130 -130 M -2615 3020 l 130 -130"></path><text class="dim-label source-dimension" x="-2675" y="2869.0" transform="rotate(-90 -2675 2869.0)" style="font-size:145px">172</text></g><g data-provenance="printed" data-dimension="2" tabindex="0" role="button" aria-label="Printed dimension 3086 millimetres"><title>3086 mm · source sheet 5</title><path class="dimension" d="M -2700 2955 H -2300 M -2700 6041 H -2300 M -2550 2955 V 6041 M -2615 3020 l 130 -130 M -2615 6106 l 130 -130"></path><text class="dim-label source-dimension" x="-2675" y="4498.0" transform="rotate(-90 -2675 4498.0)">3086</text></g><g data-provenance="printed" data-dimension="3" tabindex="0" role="button" aria-label="Printed dimension 2400 millimetres"><title>2400 mm · source sheet 5</title><path class="dimension" d="M -2700 6213 H -2300 M -2700 8613 H -2300 M -2550 6213 V 8613 M -2615 6278 l 130 -130 M -2615 8678 l 130 -130"></path><text class="dim-label source-dimension" x="-2675" y="7413.0" transform="rotate(-90 -2675 7413.0)">2400</text></g><g data-provenance="printed" data-dimension="4" tabindex="0" role="button" aria-label="Printed dimension 172 millimetres"><title>172 mm · source sheet 5</title><path class="dimension" d="M 16520 6041 H 16920 M 16520 6213 H 16920 M 16670 6041 V 6213 M 16605 6106 l 130 -130 M 16605 6278 l 130 -130"></path><text class="dim-label source-dimension" x="16385" y="6127.0" transform="rotate(-90 16385 6127.0)" style="font-size:145px">172</text></g></g></svg>